<?xml version="1.0" standalone="no"?>
<!DOCTYPE svg PUBLIC "-//W3C//DTD SVG 20010904//EN"
 "http://www.w3.org/TR/2001/REC-SVG-20010904/DTD/svg10.dtd">
<svg version="1.0" xmlns="http://www.w3.org/2000/svg"
 width="512.000000pt" height="512.000000pt" viewBox="0 0 512.000000 512.000000"
 preserveAspectRatio="xMidYMid meet">
<metadata>
Created by potrace 1.14, written by Peter Selinger 2001-2017
</metadata>
<g transform="translate(0.000000,512.000000) scale(0.100000,-0.100000)"
fill="#000000" stroke="none">
<path d="M235 4863 c-89 -20 -181 -100 -214 -186 -20 -51 -20 -77 -20 -1599
-1 -1537 -1 -1547 20 -1595 30 -71 80 -125 145 -158 l59 -30 2325 -2 2325 -2
55 21 c68 26 138 97 168 168 l22 52 -1 1547 c0 1509 -1 1547 -20 1597 -27 70
-79 128 -147 161 l-57 28 -2320 1 c-1276 1 -2329 0 -2340 -3z"/>
<path d="M1770 770 l0 -220 -420 0 c-371 0 -425 -2 -453 -16 -114 -59 -114
-210 0 -268 29 -15 180 -16 1663 -16 1483 0 1634 1 1663 16 102 52 114 187 23
255 l-31 24 -432 3 -433 3 0 219 0 220 -790 0 -790 0 0 -220z"/>
</g>
</svg>
